<mxfile host="drawio-plugin" modified="2022-03-15T00:39:57.592Z" agent="5.0 (X11; Linux x86_64) AppleWebKit/537.36 (KHTML, like Gecko) Chrome/89.0.4389.114 Safari/537.36" etag="73RwMQuWVhv1TGQwzfYK" version="15.5.4" type="embed"><diagram id="Jz_QuBgI4QyL8KhbJVqB" name="Page-1"><mxGraphModel dx="901" dy="499" grid="1" gridSize="10" guides="1" tooltips="1" connect="1" arrows="1" fold="1" page="1" pageScale="1" pageWidth="827" pageHeight="1169" math="0" shadow="0"><root><mxCell id="0"/><mxCell id="1" parent="0"/><mxCell id="40" value="Usuarios" style="swimlane;fontStyle=1;align=center;verticalAlign=top;childLayout=stackLayout;horizontal=1;startSize=26;horizontalStack=0;resizeParent=1;resizeParentMax=0;resizeLast=0;collapsible=1;marginBottom=0;" parent="1" vertex="1"><mxGeometry x="70" y="960" width="130" height="138" as="geometry"/></mxCell><mxCell id="41" value="usmail PK" style="text;strokeColor=none;fillColor=none;align=left;verticalAlign=top;spacingLeft=4;spacingRight=4;overflow=hidden;rotatable=0;points=[[0,0.5],[1,0.5]];portConstraint=eastwest;" parent="40" vertex="1"><mxGeometry y="26" width="130" height="26" as="geometry"/></mxCell><mxCell id="42" value="" style="line;strokeWidth=1;fillColor=none;align=left;verticalAlign=middle;spacingTop=-1;spacingLeft=3;spacingRight=3;rotatable=0;labelPosition=right;points=[];portConstraint=eastwest;" parent="40" vertex="1"><mxGeometry y="52" width="130" height="8" as="geometry"/></mxCell><mxCell id="43" value="usnombre " style="text;strokeColor=none;fillColor=none;align=left;verticalAlign=top;spacingLeft=4;spacingRight=4;overflow=hidden;rotatable=0;points=[[0,0.5],[1,0.5]];portConstraint=eastwest;" parent="40" vertex="1"><mxGeometry y="60" width="130" height="26" as="geometry"/></mxCell><mxCell id="44" value="uspuntaje" style="text;strokeColor=none;fillColor=none;align=left;verticalAlign=top;spacingLeft=4;spacingRight=4;overflow=hidden;rotatable=0;points=[[0,0.5],[1,0.5]];portConstraint=eastwest;" parent="40" vertex="1"><mxGeometry y="86" width="130" height="26" as="geometry"/></mxCell><mxCell id="45" value="usEsAdmin" style="text;strokeColor=none;fillColor=none;align=left;verticalAlign=top;spacingLeft=4;spacingRight=4;overflow=hidden;rotatable=0;points=[[0,0.5],[1,0.5]];portConstraint=eastwest;" parent="40" vertex="1"><mxGeometry y="112" width="130" height="26" as="geometry"/></mxCell><mxCell id="46" value="Comentarios" style="swimlane;fontStyle=1;align=center;verticalAlign=top;childLayout=stackLayout;horizontal=1;startSize=26;horizontalStack=0;resizeParent=1;resizeParentMax=0;resizeLast=0;collapsible=1;marginBottom=0;" parent="1" vertex="1"><mxGeometry x="490" y="956" width="130" height="146" as="geometry"/></mxCell><mxCell id="47" value="coid PK" style="text;strokeColor=none;fillColor=none;align=left;verticalAlign=top;spacingLeft=4;spacingRight=4;overflow=hidden;rotatable=0;points=[[0,0.5],[1,0.5]];portConstraint=eastwest;" parent="46" vertex="1"><mxGeometry y="26" width="130" height="26" as="geometry"/></mxCell><mxCell id="48" value="" style="line;strokeWidth=1;fillColor=none;align=left;verticalAlign=middle;spacingTop=-1;spacingLeft=3;spacingRight=3;rotatable=0;labelPosition=right;points=[];portConstraint=eastwest;" parent="46" vertex="1"><mxGeometry y="52" width="130" height="8" as="geometry"/></mxCell><mxCell id="49" value="coidelemento FK" style="text;strokeColor=none;fillColor=none;align=left;verticalAlign=top;spacingLeft=4;spacingRight=4;overflow=hidden;rotatable=0;points=[[0,0.5],[1,0.5]];portConstraint=eastwest;" parent="46" vertex="1"><mxGeometry y="60" width="130" height="26" as="geometry"/></mxCell><mxCell id="50" value="coautor FK" style="text;strokeColor=none;fillColor=none;align=left;verticalAlign=top;spacingLeft=4;spacingRight=4;overflow=hidden;rotatable=0;points=[[0,0.5],[1,0.5]];portConstraint=eastwest;" parent="46" vertex="1"><mxGeometry y="86" width="130" height="26" as="geometry"/></mxCell><mxCell id="51" value="" style="line;strokeWidth=1;fillColor=none;align=left;verticalAlign=middle;spacingTop=-1;spacingLeft=3;spacingRight=3;rotatable=0;labelPosition=right;points=[];portConstraint=eastwest;" parent="46" vertex="1"><mxGeometry y="112" width="130" height="8" as="geometry"/></mxCell><mxCell id="52" value="codescripcion" style="text;strokeColor=none;fillColor=none;align=left;verticalAlign=top;spacingLeft=4;spacingRight=4;overflow=hidden;rotatable=0;points=[[0,0.5],[1,0.5]];portConstraint=eastwest;" parent="46" vertex="1"><mxGeometry y="120" width="130" height="26" as="geometry"/></mxCell><mxCell id="53" value="Catedras" style="swimlane;fontStyle=1;align=center;verticalAlign=top;childLayout=stackLayout;horizontal=1;startSize=26;horizontalStack=0;resizeParent=1;resizeParentMax=0;resizeLast=0;collapsible=1;marginBottom=0;" parent="1" vertex="1"><mxGeometry x="495" y="672" width="120" height="86" as="geometry"/></mxCell><mxCell id="54" value="caid PK" style="text;strokeColor=none;fillColor=none;align=left;verticalAlign=top;spacingLeft=4;spacingRight=4;overflow=hidden;rotatable=0;points=[[0,0.5],[1,0.5]];portConstraint=eastwest;" parent="53" vertex="1"><mxGeometry y="26" width="120" height="26" as="geometry"/></mxCell><mxCell id="55" value="" style="line;strokeWidth=1;fillColor=none;align=left;verticalAlign=middle;spacingTop=-1;spacingLeft=3;spacingRight=3;rotatable=0;labelPosition=right;points=[];portConstraint=eastwest;" parent="53" vertex="1"><mxGeometry y="52" width="120" height="8" as="geometry"/></mxCell><mxCell id="56" value="caurl N" style="text;strokeColor=none;fillColor=none;align=left;verticalAlign=top;spacingLeft=4;spacingRight=4;overflow=hidden;rotatable=0;points=[[0,0.5],[1,0.5]];portConstraint=eastwest;" parent="53" vertex="1"><mxGeometry y="60" width="120" height="26" as="geometry"/></mxCell><mxCell id="57" value="" style="edgeStyle=entityRelationEdgeStyle;fontSize=12;html=1;endArrow=ERzeroToMany;startArrow=ERmandOne;" parent="1" source="40" target="46" edge="1"><mxGeometry width="100" height="100" relative="1" as="geometry"><mxPoint x="220" y="1212" as="sourcePoint"/><mxPoint x="330" y="959" as="targetPoint"/></mxGeometry></mxCell><mxCell id="58" value="" style="edgeStyle=entityRelationEdgeStyle;fontSize=12;html=1;endArrow=ERzeroToMany;startArrow=ERmandOne;exitX=1;exitY=0.5;exitDx=0;exitDy=0;" parent="1" target="47" edge="1"><mxGeometry width="100" height="100" relative="1" as="geometry"><mxPoint x="430" y="775" as="sourcePoint"/><mxPoint x="560" y="859" as="targetPoint"/></mxGeometry></mxCell><mxCell id="59" value="" style="edgeStyle=entityRelationEdgeStyle;fontSize=12;html=1;endArrow=ERzeroToMany;startArrow=ERzeroToOne;" parent="1" source="41" edge="1"><mxGeometry width="100" height="100" relative="1" as="geometry"><mxPoint x="110" y="859" as="sourcePoint"/><mxPoint x="260" y="715" as="targetPoint"/></mxGeometry></mxCell><mxCell id="60" value="" style="edgeStyle=entityRelationEdgeStyle;fontSize=12;html=1;endArrow=ERzeroToMany;startArrow=ERzeroToOne;" parent="1" target="53" edge="1"><mxGeometry width="100" height="100" relative="1" as="geometry"><mxPoint x="430" y="715" as="sourcePoint"/><mxPoint x="590" y="589" as="targetPoint"/></mxGeometry></mxCell><mxCell id="64" value="Carpeta" style="swimlane;fontStyle=1;align=center;verticalAlign=top;childLayout=stackLayout;horizontal=1;startSize=26;horizontalStack=0;resizeParent=1;resizeParentMax=0;resizeLast=0;collapsible=1;marginBottom=0;" vertex="1" parent="1"><mxGeometry x="250" y="170" width="170" height="198" as="geometry"><mxRectangle x="270" y="81" width="90" height="26" as="alternateBounds"/></mxGeometry></mxCell><mxCell id="65" value="elnombre PK" style="text;strokeColor=none;fillColor=none;align=left;verticalAlign=top;spacingLeft=4;spacingRight=4;overflow=hidden;rotatable=0;points=[[0,0.5],[1,0.5]];portConstraint=eastwest;" vertex="1" parent="64"><mxGeometry y="26" width="170" height="26" as="geometry"/></mxCell><mxCell id="66" value="" style="line;strokeWidth=1;fillColor=none;align=left;verticalAlign=middle;spacingTop=-1;spacingLeft=3;spacingRight=3;rotatable=0;labelPosition=right;points=[];portConstraint=eastwest;" vertex="1" parent="64"><mxGeometry y="52" width="170" height="8" as="geometry"/></mxCell><mxCell id="67" value="elcaId FK" style="text;strokeColor=none;fillColor=none;align=left;verticalAlign=top;spacingLeft=4;spacingRight=4;overflow=hidden;rotatable=0;points=[[0,0.5],[1,0.5]];portConstraint=eastwest;" vertex="1" parent="64"><mxGeometry y="60" width="170" height="26" as="geometry"/></mxCell><mxCell id="68" value="elelempadre FK N" style="text;strokeColor=none;fillColor=none;align=left;verticalAlign=top;spacingLeft=4;spacingRight=4;overflow=hidden;rotatable=0;points=[[0,0.5],[1,0.5]];portConstraint=eastwest;" vertex="1" parent="64"><mxGeometry y="86" width="170" height="26" as="geometry"/></mxCell><mxCell id="69" value="elpropietario FK N" style="text;strokeColor=none;fillColor=none;align=left;verticalAlign=top;spacingLeft=4;spacingRight=4;overflow=hidden;rotatable=0;points=[[0,0.5],[1,0.5]];portConstraint=eastwest;" vertex="1" parent="64"><mxGeometry y="112" width="170" height="26" as="geometry"/></mxCell><mxCell id="70" value="" style="line;strokeWidth=1;fillColor=none;align=left;verticalAlign=middle;spacingTop=-1;spacingLeft=3;spacingRight=3;rotatable=0;labelPosition=right;points=[];portConstraint=eastwest;" vertex="1" parent="64"><mxGeometry y="138" width="170" height="8" as="geometry"/></mxCell><mxCell id="71" value="elfechamodificacion" style="text;strokeColor=none;fillColor=none;align=left;verticalAlign=top;spacingLeft=4;spacingRight=4;overflow=hidden;rotatable=0;points=[[0,0.5],[1,0.5]];portConstraint=eastwest;" vertex="1" parent="64"><mxGeometry y="146" width="170" height="26" as="geometry"/></mxCell><mxCell id="72" value="elfechacreacion" style="text;strokeColor=none;fillColor=none;align=left;verticalAlign=top;spacingLeft=4;spacingRight=4;overflow=hidden;rotatable=0;points=[[0,0.5],[1,0.5]];portConstraint=eastwest;" vertex="1" parent="64"><mxGeometry y="172" width="170" height="26" as="geometry"/></mxCell><mxCell id="73" value="Archivo" style="swimlane;fontStyle=1;align=center;verticalAlign=top;childLayout=stackLayout;horizontal=1;startSize=26;horizontalStack=0;resizeParent=1;resizeParentMax=0;resizeLast=0;collapsible=1;marginBottom=0;" vertex="1" parent="1"><mxGeometry x="250" y="420" width="170" height="146" as="geometry"><mxRectangle x="270" y="81" width="90" height="26" as="alternateBounds"/></mxGeometry></mxCell><mxCell id="74" value="elnombre PK FK" style="text;strokeColor=none;fillColor=none;align=left;verticalAlign=top;spacingLeft=4;spacingRight=4;overflow=hidden;rotatable=0;points=[[0,0.5],[1,0.5]];portConstraint=eastwest;" vertex="1" parent="73"><mxGeometry y="26" width="170" height="26" as="geometry"/></mxCell><mxCell id="75" value="" style="line;strokeWidth=1;fillColor=none;align=left;verticalAlign=middle;spacingTop=-1;spacingLeft=3;spacingRight=3;rotatable=0;labelPosition=right;points=[];portConstraint=eastwest;" vertex="1" parent="73"><mxGeometry y="52" width="170" height="8" as="geometry"/></mxCell><mxCell id="76" value="" style="line;strokeWidth=1;fillColor=none;align=left;verticalAlign=middle;spacingTop=-1;spacingLeft=3;spacingRight=3;rotatable=0;labelPosition=right;points=[];portConstraint=eastwest;" vertex="1" parent="73"><mxGeometry y="60" width="170" height="8" as="geometry"/></mxCell><mxCell id="77" value="eltamanio" style="text;strokeColor=none;fillColor=none;align=left;verticalAlign=top;spacingLeft=4;spacingRight=4;overflow=hidden;rotatable=0;points=[[0,0.5],[1,0.5]];portConstraint=eastwest;" vertex="1" parent="73"><mxGeometry y="68" width="170" height="26" as="geometry"/></mxCell><mxCell id="78" value="eltipo" style="text;strokeColor=none;fillColor=none;align=left;verticalAlign=top;spacingLeft=4;spacingRight=4;overflow=hidden;rotatable=0;points=[[0,0.5],[1,0.5]];portConstraint=eastwest;" vertex="1" parent="73"><mxGeometry y="94" width="170" height="26" as="geometry"/></mxCell><mxCell id="79" value="elpalabraclave" style="text;strokeColor=none;fillColor=none;align=left;verticalAlign=top;spacingLeft=4;spacingRight=4;overflow=hidden;rotatable=0;points=[[0,0.5],[1,0.5]];portConstraint=eastwest;" vertex="1" parent="73"><mxGeometry y="120" width="170" height="26" as="geometry"/></mxCell><mxCell id="80" value="" style="fontSize=12;html=1;endArrow=ERzeroToMany;startArrow=ERzeroToOne;exitX=0.5;exitY=0;exitDx=0;exitDy=0;entryX=0.5;entryY=1;entryDx=0;entryDy=0;" edge="1" parent="1" source="73" target="64"><mxGeometry width="100" height="100" relative="1" as="geometry"><mxPoint x="500" y="765" as="sourcePoint"/><mxPoint x="330" y="371" as="targetPoint"/></mxGeometry></mxCell></root></mxGraphModel></diagram></mxfile>